<svg xmlns="http://www.w3.org/2000/svg" xmlns:xlink="http://www.w3.org/1999/xlink" width="80" zoomAndPan="magnify" viewBox="0 0 60 60" height="80" preserveAspectRatio="xMidYMid meet" version="1.0"><defs><clipPath id="07b3484a2c"><path d="M 13.5 13.5 L 46.5 13.5 L 46.5 46.5 L 13.5 46.5 Z M 13.5 13.5 " clip-rule="nonzero"/></clipPath></defs><rect x="-6" width="72" fill="#ffffff" y="-6" height="72" fill-opacity="1"/><rect x="-6" width="72" fill="#ffffff" y="-6" height="72" fill-opacity="1"/><g clip-path="url(#07b3484a2c)"><path fill="#000000" d="M 30 13.5 C 20.902344 13.5 13.5 20.902344 13.5 30 C 13.5 39.097656 20.902344 46.5 30 46.5 C 39.097656 46.5 46.5 39.097656 46.5 30 C 46.5 20.902344 39.097656 13.5 30 13.5 Z M 30 17.804688 C 32.769531 17.804688 35.023438 20.058594 35.023438 22.824219 C 35.023438 25.59375 32.769531 27.847656 30 27.847656 C 27.230469 27.847656 24.976562 25.59375 24.976562 22.824219 C 24.976562 20.058594 27.230469 17.804688 30 17.804688 Z M 38.609375 39.324219 L 21.390625 39.324219 C 20.996094 39.324219 20.675781 39.003906 20.675781 38.609375 C 20.675781 33.464844 24.859375 29.28125 30 29.28125 C 35.140625 29.28125 39.324219 33.464844 39.324219 38.609375 C 39.324219 39.003906 39.003906 39.324219 38.609375 39.324219 Z M 38.609375 39.324219 " fill-opacity="1" fill-rule="nonzero"/></g></svg>